PathFileType	4	(X/Y/Z)	FAIDC1_INITIAL_WALK01.trc	
DataRate	CameraRate	NumFrames	NumMarkers	Units	OrigDataRate	OrigDataStartFrame	OrigNumFrames
100	100	7	49	mm	100	300	113
Frame#	Time	RSH			LSH			C7			LELB			LWR			RELB			RWR			RASI			LASI			SACR			P1			P2			P3			LTHLP			LTHLD			LTHAP			LTHAD			LLEPI			LPAT			LMEPI			LTIAP			LTIAD			LTILAT			LLMAL			LMMAL			LHEEL			LMFS			LMFL			LP5MT			LP1MT			LTOE			RTHLP			RTHLD			RTHAP			RTHAD			RLEPI			RPAT			RMEPI			RTIAP			RTIAD			RTILAT			RLMAL			RMMAL			RHEEL			RMFS			RMFL			RP5MT			RP1MT			RTOE			
		X1	Y1	Z1	X2	Y2	Z2	X3	Y3	Z3	X4	Y4	Z4	X5	Y5	Z5	X6	Y6	Z6	X7	Y7	Z7	X8	Y8	Z8	X9	Y9	Z9	X10	Y10	Z10	X11	Y11	Z11	X12	Y12	Z12	X13	Y13	Z13	X14	Y14	Z14	X15	Y15	Z15	X16	Y16	Z16	X17	Y17	Z17	X18	Y18	Z18	X19	Y19	Z19	X20	Y20	Z20	X21	Y21	Z21	X22	Y22	Z22	X23	Y23	Z23	X24	Y24	Z24	X25	Y25	Z25	X26	Y26	Z26	X27	Y27	Z27	X28	Y28	Z28	X29	Y29	Z29	X30	Y30	Z30	X31	Y31	Z31	X32	Y32	Z32	X33	Y33	Z33	X34	Y34	Z34	X35	Y35	Z35	X36	Y36	Z36	X37	Y37	Z37	X38	Y38	Z38	X39	Y39	Z39	X40	Y40	Z40	X41	Y41	Z41	X42	Y42	Z42	X43	Y43	Z43	X44	Y44	Z44	X45	Y45	Z45	X46	Y46	Z46	X47	Y47	Z47	X48	Y48	Z48	X49	Y49	Z49	

57	0.56000	825.40808	1481.40991	190.76593	833.47321	1493.87842	-161.44260	750.00372	1520.09070	22.17805	826.58698	1140.85120	-279.39984	1037.45593	1012.96008	-223.02490	704.74896	1163.24463	308.90421	734.64679	910.00903	333.27267	864.42596	1004.62579	146.03049	848.86383	1013.49963	-129.47995	683.69708	1084.65662	19.33095	675.47400	1065.67297	-31.20700	681.15936	1061.54724	71.18871	660.84467	998.93726	19.36629	720.62439	735.99805	-170.35361	686.34674	638.77502	-152.97891	816.42395	713.45233	-109.93298	773.56580	620.17560	-94.58325	629.14221	512.74115	-129.72330	701.03595	490.01929	-73.27228	635.77570	522.84204	-7.47566	597.81750	375.87952	-51.05795	528.98834	266.70142	-39.69589	524.61768	339.72446	-124.97781	415.13547	145.24309	-83.00159	446.98459	159.99152	8.21819	347.34229	158.01456	-44.18991	497.38330	106.95306	-14.59357	456.41629	92.55774	-86.54507	509.60385	49.86329	-100.41031	541.08093	48.19363	14.74022	597.44043	40.56589	-9.76553	873.07935	722.64874	202.03845	904.07007	611.76514	176.91554	953.37634	748.86011	128.30478	980.81433	651.61591	111.92569	940.41168	514.10779	158.73689	1020.66748	551.98541	101.29770	946.15643	513.53369	29.80371	1037.76465	412.96429	87.37643	1081.18677	270.14621	78.42085	984.66278	316.41650	162.76851	1094.23193	99.78666	115.23752	1112.24121	135.93347	28.94583	1041.16089	64.58846	67.89699	1189.34631	145.86324	78.87704	1174.68213	99.80685	127.04161	1234.73755	101.17048	138.27686	1268.42981	140.92502	41.77922	1310.60962	154.34224	70.63841	
58	0.57000	839.93463	1479.79321	192.18729	847.60681	1492.55933	-160.10489	764.22351	1518.60730	23.68686	839.61792	1139.31921	-277.54773	1049.46790	1009.32666	-222.23444	720.93494	1160.65601	309.68875	749.66522	907.41962	334.45584	879.61035	1003.38025	147.33011	864.05273	1011.53113	-128.24640	698.77039	1083.16138	20.24947	690.58215	1063.99402	-30.19327	696.29230	1060.15869	72.21988	675.92493	997.46338	20.61201	735.02423	734.36584	-169.41626	701.10767	637.01501	-152.61160	831.31897	711.88104	-109.91495	788.61407	618.32892	-94.73318	643.70276	511.28601	-129.61407	715.55713	487.28760	-73.33456	650.36536	520.93829	-7.37289	608.65839	374.85208	-51.20303	536.65906	267.71622	-40.25986	534.72668	341.00891	-125.85547	419.26889	149.19292	-83.85242	451.95331	163.63196	7.61978	352.11032	164.41841	-45.33682	500.48895	108.57219	-15.23431	459.21558	95.29858	-87.27255	510.89856	50.27643	-100.49026	541.35889	48.40619	15.06302	597.55731	40.36587	-9.49600	891.13525	723.42487	201.40573	922.76385	612.32422	176.38086	971.10693	751.52960	127.54592	997.85815	652.35901	111.11400	958.30078	513.71112	157.91061	1037.15137	552.19263	100.67162	963.35010	513.78644	29.06833	1051.85120	409.68436	85.36826	1090.82202	265.53549	75.98586	997.30798	314.80939	161.69125	1099.10706	95.50436	113.26079	1117.49353	130.21814	26.53104	1044.28528	61.77669	65.65448	1195.69263	138.33403	74.80862	1178.88818	94.30402	124.33354	1239.10547	93.65859	135.41010	1274.26587	128.69821	37.66414	1316.25964	142.27501	66.67476	
59	0.58000	854.61731	1478.31396	193.68567	861.79224	1491.41272	-158.62259	778.36328	1517.17419	25.34334	852.54529	1137.97607	-275.62134	1061.00281	1005.30981	-221.55286	737.52313	1158.13293	310.48318	765.23474	904.94788	335.52438	894.92102	1002.51611	148.67851	879.69934	1009.77185	-126.95950	714.23657	1081.86401	21.23254	705.94836	1062.58130	-29.19492	711.68170	1058.93481	73.23915	691.26599	996.11707	21.73898	750.07867	732.72913	-168.41370	716.37628	635.64020	-152.22391	846.77344	710.46539	-109.72025	804.46710	616.63818	-94.73239	659.23480	509.80389	-129.83310	731.26294	484.22925	-73.75284	666.25720	518.86920	-7.42375	620.60370	373.81415	-51.50107	545.35669	268.84689	-40.89365	545.54980	342.17383	-126.38174	424.24265	153.67796	-84.63361	456.89578	166.85008	6.67473	357.83072	171.41290	-46.43503	504.27066	110.43342	-15.95090	462.65042	98.20479	-87.97290	512.41296	50.80901	-100.44025	541.34900	48.15711	15.09885	597.74902	40.22421	-9.26959	909.57880	724.06818	200.15236	942.13251	613.01263	174.93745	989.76611	753.63391	127.52164	1014.93561	653.25592	110.20245	976.40607	513.40448	156.91998	1053.86047	551.78430	99.47476	980.91797	514.06183	28.15640	1065.32727	406.31418	82.73997	1100.00024	261.24234	72.70750	1009.32013	313.27975	160.42914	1103.43970	91.96897	110.11971	1121.53174	125.11998	22.93036	1046.94678	59.66166	62.57253	1201.45215	130.99562	69.75925	1182.67188	89.47361	120.84455	1242.68652	86.47236	131.97954	1279.58569	116.51138	33.31093	1321.54285	130.04147	62.24448	
60	0.59000	869.34631	1477.02026	195.25308	875.92389	1490.52295	-157.08374	792.56519	1515.93372	27.16147	865.34265	1136.85669	-273.70508	1072.15588	1000.96490	-221.06625	754.51587	1155.65356	311.21332	781.29944	902.55475	336.47479	910.31537	1002.40625	149.95770	895.50739	1008.31213	-125.61899	729.61713	1080.78503	22.31577	721.50824	1061.42896	-28.10379	727.11554	1057.98486	74.31001	706.40668	995.19415	23.01143	765.82483	731.07843	-167.31409	732.76166	633.83667	-151.66312	863.50659	709.00134	-109.67691	821.12158	615.04169	-94.75613	675.69611	508.04309	-130.09280	748.22430	480.90643	-74.39261	683.38989	516.42676	-7.42010	633.67468	372.69867	-51.99741	555.07373	270.12891	-41.71570	557.54633	343.65067	-126.93848	430.09402	158.92856	-85.81158	463.69312	170.81972	5.03513	364.76089	179.07196	-47.44293	508.70282	112.49051	-16.71298	466.56589	101.45545	-88.68585	514.18359	51.46425	-100.51962	541.72070	48.22967	15.17740	597.96606	40.10340	-9.10699	928.10529	724.58954	197.72458	961.92145	614.86212	171.88028	1009.24609	755.41205	128.14337	1032.67261	654.63440	109.04961	993.81415	513.18707	155.57404	1069.95471	549.52222	97.99831	997.96704	514.09607	27.08354	1078.61584	404.08075	79.63385	1110.06677	258.74716	68.88043	1021.21307	312.11356	158.35277	1109.45874	91.02956	106.99707	1127.81433	122.81541	18.98735	1051.05908	61.02747	59.88058	1208.49683	125.81747	65.59589	1187.91357	86.38665	117.34993	1247.75635	80.87627	129.20459	1286.42603	107.79221	30.50084	1329.76538	118.79316	58.83363	
61	0.60000	884.17560	1476.03406	196.90067	890.07251	1489.98926	-155.62192	806.91998	1515.20276	29.04465	878.02588	1135.99841	-271.75116	1082.77930	996.26166	-220.76596	771.79382	1153.32959	311.98871	797.88892	900.27606	337.32977	925.50354	1003.21277	151.15083	911.54987	1007.11377	-124.31497	744.88367	1080.15820	23.26787	736.91638	1060.59753	-27.19968	742.37476	1057.52441	75.37584	721.73132	994.54199	24.11386	782.47046	729.42267	-166.16299	750.15967	631.96967	-150.94702	879.89752	707.65326	-109.20084	838.83112	613.50861	-94.44339	693.62750	506.44696	-130.15851	766.52924	477.29639	-75.03165	702.02759	513.66858	-7.34753	648.03613	371.50146	-52.43262	566.03650	271.65518	-42.65540	570.80908	345.33566	-127.51413	437.50757	164.78799	-87.18988	471.36588	175.22044	3.62282	373.00287	187.69263	-48.91232	513.94702	114.61954	-17.75174	471.41711	104.98166	-89.72537	516.25995	52.28904	-100.62332	542.53827	48.40992	15.37029	598.25732	39.97610	-9.02512	945.98236	725.10614	195.16000	980.39880	616.66986	168.51254	1028.97083	757.11108	129.10782	1050.57642	655.60059	107.40889	1009.19452	513.53650	154.24762	1085.27393	547.46777	95.88126	1012.55493	514.09094	25.91737	1091.48901	403.53323	76.40393	1120.37939	257.86868	65.50101	1033.94873	312.15347	155.53308	1116.80286	90.93698	104.56088	1135.33691	121.52992	15.87389	1055.97632	64.22968	57.09746	1216.44263	120.95626	62.11421	1193.71924	83.51009	114.19420	1253.00732	75.23931	126.84825	1293.23450	98.55043	27.93906	1337.71265	107.87926	56.13731	
62	0.61000	899.00024	1475.44519	198.62825	904.26794	1489.82910	-154.25754	821.44916	1515.28027	30.92227	890.67267	1135.38708	-269.66986	1092.88159	991.18347	-220.57770	789.36786	1151.22766	312.65436	814.98108	898.26312	337.99277	940.45886	1004.78979	152.24437	927.44843	1006.28619	-122.90216	759.84851	1080.04443	23.82516	752.20740	1060.07788	-26.55103	757.27936	1057.69824	76.09474	736.97284	994.44348	25.18956	800.06622	727.72314	-164.83633	768.78503	629.94470	-150.01425	898.46936	706.79150	-108.91364	857.73737	612.18018	-93.94553	713.02905	504.83453	-130.06705	786.43903	473.50275	-75.16800	722.21954	510.93652	-6.98424	663.78662	370.47458	-52.74973	578.44812	273.47430	-43.58414	585.53894	347.73566	-128.24017	446.42770	171.24341	-88.71829	480.54840	179.97835	1.97279	383.08688	197.11287	-50.44989	520.13678	116.94829	-18.99301	477.19315	108.94537	-90.78137	518.95740	53.51116	-100.58884	543.93750	48.69321	15.50822	598.65637	39.79901	-9.05182	962.33344	725.66583	193.66019	996.54993	618.01935	166.06363	1047.99109	758.35645	130.03011	1067.18530	655.51898	104.84254	1024.24780	514.81403	153.51421	1100.37305	547.73645	92.48256	1024.43945	514.37122	25.11729	1103.86572	403.82608	73.41174	1129.88940	257.15518	62.91888	1048.08630	313.94427	152.84177	1123.31909	90.96587	103.38591	1141.85376	119.90207	13.73555	1059.98499	67.39742	56.04491	1223.30762	116.08733	59.32813	1199.02466	80.62235	111.87398	1257.81335	69.72151	124.56689	1298.66553	89.38718	25.29385	1343.84253	96.92369	53.41814	
63	0.62000	913.81592	1475.37915	200.39478	918.56250	1490.12170	-152.90302	836.05560	1515.96582	32.73714	903.33179	1135.28052	-267.52222	1102.35327	985.93573	-220.64789	807.24518	1149.50256	313.21271	832.57068	896.68372	338.56683	955.19464	1006.86151	153.42673	943.26483	1006.04962	-121.47894	774.60907	1080.40637	23.94400	767.31573	1059.97961	-26.34143	771.96826	1058.47668	76.39589	751.63843	994.99817	25.99257	818.57837	726.07666	-163.32755	788.75482	627.91156	-149.06192	917.50610	706.45734	-108.02249	877.92188	611.20898	-93.17841	734.21753	503.17236	-129.97842	808.32581	469.66318	-74.87112	743.66644	508.00375	-7.22774	681.04773	369.67169	-53.10297	592.47681	275.67203	-44.63708	602.45959	350.19690	-129.05066	456.83124	178.46692	-90.40274	491.39255	185.10526	0.07884	395.17020	207.46463	-51.98447	527.71954	119.38483	-20.52899	484.09610	113.41906	-91.96359	521.74908	55.28162	-101.12384	545.76422	49.15656	15.62122	599.25140	39.65850	-9.17468	978.06384	726.36572	193.35127	1011.69360	619.36896	165.02750	1064.52075	758.71106	130.30547	1083.95386	656.43207	101.58134	1040.59631	516.82233	153.20792	1115.84937	549.50934	89.01823	1035.80212	516.00916	24.98601	1115.95081	403.91245	71.17831	1138.11292	256.20627	61.37849	1061.07422	316.20370	151.64249	1128.14465	90.74982	103.34573	1145.95776	118.36670	13.18307	1063.02942	69.78655	56.87616	1228.10413	111.78670	57.62976	1203.16370	77.57048	110.67348	1261.45947	64.48679	122.88820	1301.86609	82.11969	22.94162	1347.83606	88.01593	50.09770	
